<svg width="84" height="76" viewBox="0 0 84 76" fill="none" xmlns="http://www.w3.org/2000/svg">
<path d="M34.9895 9.5067L13 72.7263L23.2489 64.5685L44.9076 2.29965L34.9895 9.5067Z" fill="#F11414"/>
<path d="M61.9895 9.5067L40 72.7263L50.2489 64.5685L71.9076 2.29965L61.9895 9.5067Z" fill="#F11414"/>
<path d="M17.0654 24L84 24L72.9281 31L7 31L17.0654 24Z" fill="#F11414"/>
<path d="M10.0654 48L77 48L65.9281 55L0 55L10.0654 48Z" fill="#F11414"/>
<path fill-rule="evenodd" clip-rule="evenodd" d="M15.471 48C14.7715 48.4576 14.384 49.1688 14.384 50.072C14.384 51.536 15.308 52.388 17.288 52.724C18.248 52.88 18.668 53.144 18.668 53.552C18.668 53.888 18.392 54.08 17.936 54.08C17.396 54.08 17.096 53.78 17.096 53.24H14.324C14.324 53.9419 14.5161 54.5347 14.88 55H19.164L19 55.5L18.7908 56.1275C20.516 55.9001 21.5 54.9443 21.5 53.456C21.5 52.016 20.576 51.2 18.476 50.804C17.456 50.612 17.108 50.396 17.108 50.012C17.108 49.688 17.384 49.484 17.828 49.484C18.344 49.484 18.632 49.772 18.632 50.3H21.344C21.3235 49.289 20.8752 48.4958 20.0922 48H15.471ZM29.16 47.6H21.8826V50.228H24.3186V56H26.2143L26.4 55.5L26.5674 55H27.2226V50.228H29.6586V48H29L29.16 47.6ZM30.6921 48V52.508C30.6921 53.539 30.9852 54.3826 31.5231 55H37.5759C38.1149 54.3826 38.4081 53.539 38.4081 52.508V48H35.5041V52.352C35.5041 53.12 35.1921 53.516 34.5441 53.516C33.9081 53.516 33.5841 53.12 33.5841 52.352V48H30.6921ZM39.8575 48V55H46.1708L45.978 55.5193C47.3933 54.853 48.2335 53.5324 48.2335 51.8C48.2335 49.9946 47.321 48.6365 45.7961 48H39.8575ZM60.395 48H56L56.1039 47.7228C54.3789 48.3403 53.2888 49.8528 53.2888 51.8C53.2888 53.1102 53.7824 54.2236 54.6308 55H61.2452C62.0953 54.2236 62.5888 53.1102 62.5888 51.8C62.5888 50.0998 61.7577 48.731 60.395 48ZM42.7255 50.156V53.444H43.5535C44.6335 53.444 45.3055 52.82 45.3055 51.8C45.3055 50.768 44.6335 50.156 43.5535 50.156H42.7255ZM52.2186 56H49.3146V47.6H52.2186V56ZM57.9328 50.06C56.9248 50.06 56.2168 50.768 56.2168 51.8C56.2168 52.832 56.9248 53.54 57.9328 53.54C58.9408 53.54 59.6608 52.832 59.6608 51.8C59.6608 50.768 58.9408 50.06 57.9328 50.06Z" fill="black"/>
<path fill-rule="evenodd" clip-rule="evenodd" d="M53.8849 24H57L57.0924 23.7536L58.853 26.128L61.4809 22.6H63.8209V31H60.9889V29.068L61.0129 27.34H60.9769L59.6569 29.152H58.0489L56.7289 27.328L56.6929 27.34L56.7169 29.068V31H53.8849V24ZM45.5553 24H48.9381V31H46.1061V29.068L46.1301 27.34H46.0941L44.7741 29.152H43.1661L41.8461 27.328L41.8101 27.34L41.8341 29.068V31H39.0021V24H42.3922L43.9701 26.128L45.5553 24ZM30 24H26.756V31H29.636V28.768H30.32L31.316 31H34.508L33.104 28.192C33.896 27.664 34.34 26.8 34.34 25.684C34.34 23.776 33.032 22.6 30.908 22.6H30.4667L30 24ZM29.588 26.632V24.832H30.44C31.076 24.832 31.436 25.144 31.436 25.732C31.436 26.308 31.076 26.632 30.44 26.632H29.588ZM36.5285 31.156C37.3685 31.156 37.9565 30.592 37.9565 29.788C37.9565 28.972 37.3685 28.408 36.5285 28.408C35.6885 28.408 35.0885 28.972 35.0885 29.788C35.0885 30.592 35.6885 31.156 36.5285 31.156ZM51.4114 31.156C52.2514 31.156 52.8394 30.592 52.8394 29.788C52.8394 28.972 52.2514 28.408 51.4114 28.408C50.5714 28.408 49.9714 28.972 49.9714 29.788C49.9714 30.592 50.5714 31.156 51.4114 31.156Z" fill="black"/>
</svg>
